<?xml version="1.0" encoding="UTF-8"?>
<svg id="Layer_2" data-name="Layer 2" xmlns="http://www.w3.org/2000/svg" viewBox="0 0 355.29 84.17">
  <defs>
    <style>
      .cls-1 {
        fill: #141414;
      }

      .cls-2 {
        fill: #2b4e9f;
      }
    </style>
  </defs>
  <g id="Layer_1-2" data-name="Layer 1">
    <g>
      <path class="cls-1" d="M45.05,80.86c-2.73,1.42-8.77,3.32-16.48,3.32-17.31,0-28.57-11.74-28.57-29.28s12.09-30.47,30.82-30.47c6.17,0,11.62,1.54,14.46,2.96l-2.37,8.06c-2.49-1.42-6.4-2.73-12.09-2.73-13.16,0-20.27,9.72-20.27,21.7,0,13.28,8.54,21.46,19.92,21.46,5.93,0,9.84-1.54,12.8-2.84l1.78,7.82Z"/>
      <path class="cls-1" d="M71.31,9.13v16.48h14.94v7.94h-14.94v30.94c0,7.11,2.02,11.14,7.82,11.14,2.73,0,4.74-.36,6.05-.71l.47,7.82c-2.02.83-5.22,1.42-9.25,1.42-4.86,0-8.77-1.54-11.26-4.39-2.96-3.08-4.03-8.18-4.03-14.94v-31.3h-8.89v-7.94h8.89v-13.75l10.2-2.73Z"/>
      <path class="cls-1" d="M149.26,53.71c0,21.22-14.7,30.47-28.57,30.47-15.53,0-27.51-11.38-27.51-29.52,0-19.21,12.57-30.47,28.45-30.47s27.62,11.97,27.62,29.52ZM103.73,54.3c0,12.57,7.23,22.05,17.43,22.05s17.43-9.37,17.43-22.29c0-9.72-4.86-22.05-17.19-22.05s-17.66,11.38-17.66,22.29Z"/>
      <path class="cls-2" d="M162.77,5.22c4.98-.83,11.5-1.54,19.8-1.54,10.2,0,17.67,2.37,22.41,6.64,4.39,3.79,6.99,9.6,6.99,16.72s-2.13,12.92-6.16,17.07c-5.45,5.81-14.35,8.77-24.42,8.77-3.08,0-5.93-.12-8.3-.71v32.01h-10.31V5.22ZM173.08,43.75c2.25.59,5.1.83,8.54.83,12.45,0,20.04-6.05,20.04-17.07s-7.47-15.65-18.85-15.65c-4.51,0-7.94.36-9.72.83v31.06Z"/>
      <path class="cls-2" d="M254.17,82.87l-.83-7.23h-.36c-3.2,4.51-9.37,8.54-17.55,8.54-11.62,0-17.55-8.18-17.55-16.48,0-13.87,12.33-21.46,34.5-21.34v-1.19c0-4.74-1.3-13.28-13.04-13.28-5.34,0-10.91,1.66-14.94,4.27l-2.37-6.88c4.74-3.08,11.62-5.1,18.85-5.1,17.55,0,21.81,11.97,21.81,23.47v21.46c0,4.98.24,9.84.95,13.75h-9.48ZM252.63,53.59c-11.38-.24-24.3,1.78-24.3,12.92,0,6.76,4.51,9.96,9.84,9.96,7.47,0,12.21-4.74,13.87-9.6.36-1.07.59-2.25.59-3.32v-9.96Z"/>
      <path class="cls-2" d="M327.55,67.22c0,5.93.12,11.14.47,15.65h-9.25l-.59-9.37h-.24c-2.73,4.62-8.77,10.67-18.97,10.67-9.01,0-19.8-4.98-19.8-25.13V25.49h10.43v31.77c0,10.91,3.32,18.26,12.8,18.26,7,0,11.86-4.86,13.75-9.48.59-1.54.95-3.44.95-5.33V25.49h10.43v41.73Z"/>
      <path class="cls-2" d="M344.86,0h10.43v84.17h-10.43V0Z"/>
    </g>
  </g>
</svg>